<?xml version="1.0" standalone="no"?>
<!DOCTYPE svg PUBLIC "-//W3C//DTD SVG 20010904//EN"
 "http://www.w3.org/TR/2001/REC-SVG-20010904/DTD/svg10.dtd">
<svg version="1.0" xmlns="http://www.w3.org/2000/svg"
 width="1024.000000pt" height="1024.000000pt" viewBox="0 0 1024.000000 1024.000000"
 preserveAspectRatio="xMidYMid meet">
<metadata>
Created by potrace 1.11, written by Peter Selinger 2001-2013
</metadata>
<g transform="translate(0.000000,1024.000000) scale(0.100000,-0.100000)"
fill="#000000" stroke="none">
<path d="M5786 8695 c-216 -45 -387 -137 -542 -292 -77 -78 -203 -239 -244
-311 -19 -34 -29 -42 -53 -42 -89 0 -151 -115 -98 -182 21 -27 23 -21 -91
-268 -19 -41 -130 -284 -247 -540 l-211 -465 -49 0 c-39 0 -55 -6 -75 -24 -51
-48 -52 -127 -2 -180 l24 -26 -34 -70 c-18 -38 -45 -96 -58 -127 l-25 -58
-166 0 c-177 0 -207 -7 -239 -52 -10 -13 -16 -43 -16 -74 0 -47 3 -55 35 -83
l36 -31 329 0 330 0 38 34 c32 30 37 40 37 78 0 55 -25 94 -73 116 -20 9 -38
17 -40 18 -1 1 12 34 31 74 32 69 35 73 70 76 99 9 147 107 92 188 l-24 36 28
62 c15 35 38 86 51 113 12 28 108 237 212 465 104 228 208 456 231 507 37 83
44 92 64 87 34 -9 90 14 119 49 22 27 25 38 22 79 -4 32 -13 57 -28 73 l-24
25 59 86 c73 108 201 243 278 296 314 213 769 168 910 -89 45 -85 58 -154 64
-344 6 -188 -5 -277 -47 -364 l-18 -40 -1 40 c-1 23 -6 46 -13 53 -15 15 -270
16 -354 1 -336 -59 -611 -304 -738 -657 -48 -134 -68 -235 -127 -627 -5 -33
-15 -100 -24 -150 -26 -156 -19 -200 40 -255 l27 -25 289 -3 c188 -2 289 1
289 7 0 6 -13 33 -29 60 -112 189 -79 437 78 591 131 128 331 172 504 111 l57
-19 0 286 0 287 50 28 c107 60 185 167 232 317 22 70 23 91 23 325 0 285 -6
321 -77 465 -60 123 -169 230 -298 293 -52 26 -122 54 -155 63 -84 23 -337 28
-429 9z"/>
<path d="M6071 6604 c-198 -53 -322 -270 -265 -465 32 -108 111 -201 211 -245
45 -20 70 -24 157 -24 94 0 108 2 163 30 74 37 145 111 181 188 23 49 27 70
27 152 0 78 -4 104 -23 144 -82 178 -268 269 -451 220z m193 -212 c60 -35 95
-115 82 -186 -15 -78 -97 -146 -176 -146 -81 0 -161 68 -175 149 -14 82 42
177 118 200 42 13 113 5 151 -17z"/>
<path d="M6788 5685 c-2 -2 -25 -6 -53 -9 -262 -34 -505 -149 -802 -378 -136
-104 -163 -128 -333 -298 -177 -176 -214 -218 -342 -387 -292 -388 -486 -809
-562 -1222 -30 -158 -40 -401 -23 -556 15 -143 67 -315 135 -450 31 -62 100
-172 127 -201 6 -6 26 -28 45 -50 110 -121 266 -216 428 -260 128 -34 169 -39
347 -38 125 1 170 6 267 28 313 72 544 218 769 486 214 255 301 535 231 741
-41 119 -110 161 -195 120 -39 -19 -51 -33 -102 -127 -175 -320 -423 -639
-603 -775 -31 -24 -59 -46 -62 -49 -42 -42 -193 -116 -283 -139 -183 -46 -320
13 -431 184 -40 61 -79 159 -97 240 -7 33 -13 62 -14 65 -8 33 -17 163 -17
230 1 161 17 300 56 490 34 167 152 491 233 638 38 69 127 221 146 246 174
242 273 360 432 519 335 333 717 577 917 586 39 2 52 -3 79 -27 31 -28 33 -33
32 -96 -1 -83 -24 -158 -123 -412 -97 -248 -122 -340 -123 -459 -1 -140 37
-237 127 -330 84 -85 169 -115 235 -81 39 21 54 47 105 188 46 125 94 238 185
430 79 168 96 240 95 388 -2 191 -102 387 -296 581 -42 43 -89 84 -105 92 -85
46 -156 72 -223 83 -45 6 -197 13 -202 9z"/>
<path d="M3315 5599 c-29 -26 -121 -167 -213 -329 -11 -19 -45 -80 -77 -135
-61 -107 -62 -108 -214 -385 -55 -102 -105 -192 -111 -200 -5 -8 -26 -46 -46
-85 -20 -38 -51 -97 -69 -130 -191 -353 -480 -934 -683 -1375 -92 -199 -204
-479 -217 -540 -2 -8 -11 -46 -20 -85 -21 -89 -22 -234 -2 -301 52 -176 153
-282 239 -252 39 14 59 46 107 178 23 63 46 124 51 135 5 11 29 70 53 130 191
475 467 1034 827 1676 63 113 122 217 131 230 16 24 16 24 14 -16 -2 -22 -6
-62 -9 -90 -5 -47 -15 -155 -21 -235 -2 -19 -6 -87 -10 -150 -3 -63 -8 -126
-10 -140 -8 -54 -19 -417 -19 -640 -2 -513 29 -728 125 -866 66 -97 188 -187
272 -203 38 -7 52 -5 84 13 35 20 46 38 126 211 188 404 712 1440 941 1860
190 348 206 376 265 478 28 49 51 90 51 92 0 2 38 66 84 142 107 176 184 330
202 403 2 8 13 51 25 95 16 59 22 109 22 190 1 130 -17 205 -69 282 -57 83
-118 93 -178 29 -25 -25 -157 -228 -211 -323 -6 -10 -43 -74 -84 -143 -112
-190 -161 -274 -233 -400 -104 -182 -258 -460 -258 -465 0 -3 -10 -22 -23 -43
-13 -20 -54 -95 -92 -167 -37 -71 -82 -155 -98 -185 -17 -30 -118 -228 -224
-440 l-194 -385 6 85 c3 47 7 112 10 145 2 33 7 96 10 140 12 178 29 389 41
500 2 22 7 78 10 125 3 47 8 88 10 91 2 3 6 41 10 84 3 44 7 86 9 95 1 8 6 44
10 80 4 36 9 72 10 81 2 9 6 40 10 69 4 29 8 61 10 70 2 9 6 41 10 70 6 51 8
63 20 120 2 14 7 43 10 65 3 23 8 52 11 65 10 49 12 268 2 316 -19 93 -66 174
-147 254 -144 143 -215 171 -286 109z"/>
</g>
</svg>
